# xmcd
#
# Track frame offsets:
#	150
#	12792
#	26775
#	38810
#	54785
#	68435
#	82685
#	95475
#	110285
#	125487
#
# Disc length: 1831 seconds
#
# Revision: 0
# Processed by: cddbd v1.5.1PL2 Copyright (c) Steve Scherf et al.
# Submitted via: dBpowerAMP V4.0
#
DISCID=6a07250a
DTITLE=Gary Stewart - All American Country
DYEAR=2003
DGENRE=Country
TTITLE0=She's Actin' Single (I'm Drinkin' Doubles)
TTITLE1=Back Sliders Wine
TTITLE2=I See The Want To In Your Eyes
TTITLE3=Shady Streets
TTITLE4=Out Of Hand
TTITLE5=Whiskey Trip
TTITLE6=Honky-Tonkin'
TTITLE7=Quits
TTITLE8=Cactus And A Rose
TTITLE9=Brotherly Love
EXTD=
EXTT0=
EXTT1=
EXTT2=
EXTT3=
EXTT4=
EXTT5=
EXTT6=
EXTT7=
EXTT8=
EXTT9=
PLAYORDER=
